<svg width="36px" height="35px" viewBox="0 3 36 35" version="1.1" xmlns="http://www.w3.org/2000/svg" xmlns:xlink="http://www.w3.org/1999/xlink">
    <!-- Generator: Sketch 39.1 (31720) - http://www.bohemiancoding.com/sketch -->
    <desc>Created with Sketch.</desc>
    <defs>
        <polygon id="path-1" points="0 35 35 35 35 0 0 0"></polygon>
    </defs>
    <g id="Group-7" stroke="none" stroke-width="1" fill="none" fill-rule="evenodd" transform="translate(0.000000, 3.000000)">
        <path d="M23.3333333,0 L12.3958333,0 C11.9933333,0 11.6666667,0.326666667 11.6666667,0.729166667 L11.6666667,6.5625 L13.125,6.5625 L13.125,1.45833333 L33.5416667,1.45833333 L33.5416667,13.125 L29.1666667,13.125 C28.9872917,13.125 28.8152083,13.190625 28.6825,13.30875 L23.3333333,18.064375 L23.3333333,13.8541667 C23.3333333,13.4516667 23.0066667,13.125 22.6041667,13.125 L20.4166667,13.125 L20.4166667,14.5833333 L21.875,14.5833333 L21.875,19.6875 C21.875,19.9747917 22.0441667,20.234375 22.3052083,20.3525 C22.4014583,20.3947917 22.5035417,20.4166667 22.6041667,20.4166667 C22.7791667,20.4166667 22.9527083,20.3539583 23.0883333,20.2329167 L29.44375,14.5833333 L34.2708333,14.5833333 C34.6733333,14.5833333 35,14.2566667 35,13.8541667 L35,7.29166667 L35,0 L23.3333333,0 L23.3333333,0 Z" id="Fill-1" fill="#4A4A4A"></path>
        <path d="M22.6041667,35 L0.729166667,35 C0.326666667,35 0,34.6733333 0,34.2708333 L0,32.1008333 C0,30.331875 1.10833333,28.748125 2.75770833,28.1604167 L8.02083333,26.2747917 L8.02083333,23.6075 L9.47916667,23.6075 L9.47916667,26.788125 C9.47916667,27.0958333 9.28520833,27.3714583 8.995,27.475 L3.24916667,29.5327083 C2.17729167,29.9147917 1.45833333,30.9472917 1.45833333,32.1008333 L1.45833333,33.5416667 L21.875,33.5416667 L21.875,32.1008333 C21.875,30.9472917 21.1560417,29.9147917 20.085625,29.5327083 L14.3383333,27.475 C14.048125,27.3714583 13.8541667,27.0958333 13.8541667,26.788125 L13.8541667,23.4252083 L15.3125,23.4252083 L15.3125,26.2747917 L20.5770833,28.1604167 C22.225,28.748125 23.3333333,30.331875 23.3333333,32.1008333 L23.3333333,34.2708333 C23.3333333,34.6733333 23.0066667,35 22.6041667,35" id="Fill-3" fill="#4A4A4A"></path>
        <path d="M11.5236042,11.3989167 C8.7513125,11.3989167 6.49527083,14.16975 6.49527083,17.5764167 C6.49527083,20.9845417 8.7513125,23.7568333 11.5236042,23.7568333 C14.2944375,23.7568333 16.5504792,20.9845417 16.5504792,17.5764167 C16.5504792,14.16975 14.2944375,11.3989167 11.5236042,11.3989167 M11.5236042,25.2151667 C7.9463125,25.2151667 5.0369375,21.7880833 5.0369375,17.5764167 C5.0369375,13.3662083 7.9463125,9.94058333 11.5236042,9.94058333 C15.0994375,9.94058333 18.0088125,13.3662083 18.0088125,17.5764167 C18.0088125,21.7880833 15.0994375,25.2151667 11.5236042,25.2151667" id="Fill-5" fill="#4A4A4A"></path>
        <path d="M15.733375,17.8304583 C14.364,17.8304583 13.274625,17.2500417 12.3500417,16.0265 C11.319,17.019625 9.6215,17.7312917 8.06983333,17.7312917 C7.12775,17.7312917 6.31254167,17.5344167 5.50316667,17.1115 L6.17983333,15.8179583 C6.77920833,16.1329583 7.36254167,16.2729583 8.06983333,16.2729583 C9.499,16.2729583 11.25775,15.3994167 11.7594167,14.44275 C11.8819167,14.2065 12.1254583,14.0562917 12.390875,14.0504583 C12.6694167,14.09275 12.9056667,14.1860833 13.038375,14.4179583 C13.9950417,16.0906667 14.9531667,16.5981667 16.5660833,16.284625 C16.71775,16.2569167 16.849,16.2481667 16.9831667,16.2423333 L17.159625,16.2292083 L17.3404583,17.6773333 C17.238375,17.689 17.1450417,17.6948333 17.0531667,17.6992083 C16.9831667,17.702125 16.9160833,17.7035833 16.8387917,17.7181667 C16.450875,17.794 16.083375,17.8304583 15.733375,17.8304583" id="Fill-7" fill="#4A4A4A"></path>
        <mask id="mask-2" fill="white">
            <use xlink:href="#path-1"></use>
        </mask>
        <g id="Clip-10"></g>
        <polygon id="Fill-9" fill="#4A4A4A" mask="url(#mask-2)" points="27.7083333 8.75 29.1666667 8.75 29.1666667 7.29166667 27.7083333 7.29166667"></polygon>
        <polygon id="Fill-11" fill="#4A4A4A" mask="url(#mask-2)" points="23.3333333 8.75 24.7916667 8.75 24.7916667 7.29166667 23.3333333 7.29166667"></polygon>
        <polygon id="Fill-12" fill="#4A4A4A" mask="url(#mask-2)" points="18.9583333 8.75 20.4166667 8.75 20.4166667 7.29166667 18.9583333 7.29166667"></polygon>
    </g>
</svg>