<?xml version="1.0" encoding="utf-8"?>
<!-- Generator: Adobe Illustrator 19.0.0, SVG Export Plug-In . SVG Version: 6.00 Build 0)  -->
<svg version="1.1" id="Ebene_1" xmlns="http://www.w3.org/2000/svg" xmlns:xlink="http://www.w3.org/1999/xlink" x="0px" y="0px"
	 width="50px" height="50px" viewBox="0 0 50 50" style="enable-background:new 0 0 50 50;" xml:space="preserve">
<path id="XMLID_160_" d="M28.38,25L48.47,4.92c0.93-0.93,0.93-2.45,0-3.38s-2.45-0.93-3.38,0L25,21.62L4.92,1.53
	c-0.93-0.93-2.45-0.93-3.38,0s-0.93,2.45,0,3.38L21.62,25L1.53,45.08c-0.93,0.93-0.93,2.45,0,3.38c0.47,0.47,1.08,0.7,1.69,0.7
	s1.22-0.23,1.69-0.7L25,28.38l20.08,20.08c0.47,0.47,1.08,0.7,1.69,0.7c0.61,0,1.22-0.23,1.69-0.7c0.93-0.93,0.93-2.45,0-3.38
	L28.38,25z"/>
</svg>
