<?xml version="1.0" encoding="UTF-8" standalone="no"?>
<svg width="18px" height="18px" viewBox="0 0 18 18" version="1.1" xmlns="http://www.w3.org/2000/svg" xmlns:xlink="http://www.w3.org/1999/xlink">
    <!-- Generator: Sketch 39.1 (31720) - http://www.bohemiancoding.com/sketch -->
    <title>Page 1</title>
    <desc>Created with Sketch.</desc>
    <defs></defs>
    <g id="Page-1" stroke="none" stroke-width="1" fill="none" fill-rule="evenodd" stroke-linecap="round" opacity="0.5" stroke-linejoin="round">
        <g id="3" transform="translate(-965.000000, -456.000000)" stroke="#000000">
            <g id="Group-12" transform="translate(852.000000, 449.000000)">
                <g id="Group-11" transform="translate(105.000000, 0.000000)">
                    <g id="Group-10">
                        <g id="Page-1" transform="translate(8.359091, 8.000000)">
                            <g id="Group-5" transform="translate(0.000000, 2.017080)">
                                <polygon id="Stroke-1" points="8.66714015 7.05977961 14.9074811 7.05977961 16.2942235 8.40449954 16.2942235 13.7833792 8.66714015 13.7833792"></polygon>
                                <polyline id="Stroke-3" points="6.58702652 13.7833792 0.346685606 13.7833792 0.346685606 0.336179982 3.12017045 0.336179982"></polyline>
                            </g>
                            <polyline id="Stroke-6" points="8.66714015 2.35325987 11.440625 2.35325987 11.440625 7.05977961"></polyline>
                            <g id="Group-21" transform="translate(1.386742, 0.000000)">
                                <path d="M5.8936553,1.68089991 C5.8936553,0.938614509 5.27308807,0.336179982 4.50691288,0.336179982 C3.74143106,0.336179982 3.12017045,0.938614509 3.12017045,1.68089991 L1.73342803,1.68089991 L1.73342803,4.37033976 L7.28039773,4.37033976 L7.28039773,1.68089991 L5.8936553,1.68089991 L5.8936553,1.68089991 Z" id="Stroke-7"></path>
                                <polyline id="Stroke-9" points="8.66714015 7.05977961 8.66714015 3.6979798 7.28039773 3.6979798"></polyline>
                                <polyline id="Stroke-11" points="1.73342803 3.6979798 0.346685606 3.6979798 0.346685606 13.7833792 5.20028409 13.7833792"></polyline>
                                <path d="M8.66714015,14.4557392 L13.5207386,14.4557392" id="Stroke-13"></path>
                                <path d="M8.66714015,13.1110193 L13.5207386,13.1110193" id="Stroke-15"></path>
                                <path d="M8.66714015,11.7662994 L13.5207386,11.7662994" id="Stroke-17"></path>
                                <path d="M8.66714015,10.4215794 L12.1339962,10.4215794" id="Stroke-19"></path>
                            </g>
                        </g>
                    </g>
                </g>
            </g>
        </g>
    </g>
</svg>