<?xml version="1.0" encoding="utf-8"?>
<!-- Generator: Adobe Illustrator 19.0.0, SVG Export Plug-In . SVG Version: 6.00 Build 0)  -->
<svg version="1.1" id="Ebene_1" xmlns="http://www.w3.org/2000/svg" xmlns:xlink="http://www.w3.org/1999/xlink" x="0px" y="0px"
	 width="50px" height="50px" viewBox="0 0 50 50" style="enable-background:new 0 0 50 50;" xml:space="preserve">
<style type="text/css">
	.st0{fill-rule:evenodd;clip-rule:evenodd;}
</style>
<path id="XMLID_3_" class="st0" d="M25,1.25c-13.51,0-24.46,10.9-24.46,24.35c0,10.76,7.01,19.89,16.73,23.11
	c1.22,0.22,1.67-0.53,1.67-1.17c0-0.58-0.02-2.11-0.03-4.14c-6.81,1.47-8.24-3.26-8.24-3.26c-1.11-2.81-2.72-3.56-2.72-3.56
	c-2.22-1.51,0.17-1.48,0.17-1.48c2.46,0.17,3.75,2.51,3.75,2.51c2.18,3.72,5.73,2.65,7.12,2.02c0.22-1.57,0.85-2.65,1.55-3.25
	c-5.43-0.61-11.14-2.7-11.14-12.04c0-2.66,0.95-4.83,2.52-6.53c-0.25-0.62-1.09-3.09,0.24-6.44c0,0,2.05-0.65,6.73,2.5
	c1.95-0.54,4.04-0.81,6.13-0.82c2.08,0.01,4.17,0.28,6.13,0.82c4.67-3.15,6.72-2.5,6.72-2.5c1.34,3.35,0.5,5.83,0.24,6.44
	c1.57,1.7,2.52,3.88,2.52,6.53c0,9.36-5.72,11.41-11.17,12.02c0.88,0.75,1.66,2.24,1.66,4.51c0,3.25-0.03,5.88-0.03,6.68
	c0,0.65,0.44,1.41,1.68,1.17c9.71-3.23,16.72-12.35,16.72-23.1C49.47,12.15,38.51,1.25,25,1.25"/>
</svg>
