<?xml version="1.0" encoding="UTF-8"?>
<svg width="35px" height="40px" viewBox="0 0 35 40" version="1.1" xmlns="http://www.w3.org/2000/svg" xmlns:xlink="http://www.w3.org/1999/xlink">
    <!-- Generator: Sketch 41.2 (35397) - http://www.bohemiancoding.com/sketch -->
    <title>Logo - Graphcool</title>
    <desc>Created with Sketch.</desc>
    <defs></defs>
    <g id="final" stroke="none" stroke-width="1" fill="none" fill-rule="evenodd">
        <g id="Guide" transform="translate(-51.000000, -47.000000)" fill="#FFFFFF">
            <g id="Group-4" transform="translate(51.000000, 47.000000)">
                <g id="Group-3">
                    <path d="M32.4751365,13.2713922 C30.5631382,12.1867516 28.1600368,13.6019494 27.7749024,13.8452761 L19.5195823,18.5614542 C18.3007519,17.5863307 16.5642778,17.6277557 15.3926412,18.6599058 C14.2210045,19.6920559 13.9488899,21.4200916 14.7459278,22.766792 C15.5429657,24.1134924 17.1814777,24.694165 18.6400503,24.1468309 C20.0986228,23.5994967 20.9606064,22.0805049 20.6886587,20.5367626 L28.9211898,15.8309145 L28.9713256,15.7999248 C29.5125647,15.4555944 30.7682394,14.9402466 31.3550565,15.2742471 C31.7777927,15.5141306 32.0193562,16.3175681 32.0387269,17.5009167 L32.0284718,17.5009167 L32.0284718,27.9031366 C32.0267629,28.873467 31.5129019,29.76967 30.6793622,30.2560606 L18.8450275,37.1426677 C18.0101096,37.6263201 16.9828656,37.6263201 16.1479477,37.1426677 L4.31361299,30.2560606 C3.48007333,29.76967 2.9662123,28.873467 2.96450339,27.9031366 L2.96450339,14.1356614 C2.9662123,13.1653309 3.48007333,12.269128 4.31361299,11.7827373 L15.0244494,5.55609682 C16.0435032,6.73369538 17.7512836,7.01193904 19.0869186,6.21798303 C20.4225536,5.42402703 21.0062785,3.78361897 20.4754838,2.31577921 C19.9446891,0.847939453 18.4502971,-0.0299772458 16.9206231,0.227390363 C15.390949,0.484757972 14.2609292,1.80423188 14.2325311,3.36615579 L3.17985957,9.79365567 C1.63868001,10.6891261 0.687466479,12.3434879 0.683323136,14.1356614 L0.683323136,27.8996933 C0.685006721,29.6910326 1.63307026,31.3460754 3.17188341,32.2439945 L15.0062181,39.1306015 C16.546544,40.0231318 18.4418734,40.0231318 19.9821993,39.1306015 L31.816534,32.2439945 C33.3542925,31.3466929 34.3021934,29.6932455 34.3050943,27.9031366 L34.3050943,17.8968966 L34.3130704,17.8968966 C34.3711824,15.5497114 33.7479029,13.994486 32.4751365,13.2713922 L32.4751365,13.2713922 Z" id="Logo---Graphcool"></path>
                </g>
            </g>
        </g>
    </g>
</svg>