<?xml version="1.0" encoding="UTF-8" standalone="no"?>
<svg width="22px" height="24px" viewBox="0 0 22 24" version="1.1" xmlns="http://www.w3.org/2000/svg" xmlns:xlink="http://www.w3.org/1999/xlink">
    <!-- Generator: Sketch 39.1 (31720) - http://www.bohemiancoding.com/sketch -->
    <title>Group 10</title>
    <desc>Created with Sketch.</desc>
    <defs>
        <polygon id="path-1" points="7.83239193e-06 23.9714082 21.96451 23.9714082 21.96451 1.83673469e-05 7.83239193e-06 1.83673469e-05"></polygon>
    </defs>
    <g id="Page-1" stroke="none" stroke-width="1" fill="none" fill-rule="evenodd">
        <g id="1" transform="translate(-31.000000, -1022.000000)">
            <g id="Group-11" transform="translate(31.000000, 1017.000000)">
                <g id="Group-10" transform="translate(0.000000, 5.000000)">
                    <mask id="mask-2" fill="white">
                        <use xlink:href="#path-1"></use>
                    </mask>
                    <g id="Clip-2"></g>
                    <path d="M12.6115473,20.400998 C12.2091805,19.9702837 11.6282292,19.6996714 10.9822865,19.6996714 C10.3615587,19.6996714 9.80128367,19.9498347 9.4014384,20.3515286 L4.31319771,17.4982837 C4.32038395,17.4737327 4.32712894,17.4490592 4.3334957,17.4242633 L17.6310774,17.4242633 C17.6430544,17.4711612 17.6561032,17.5177531 17.6712951,17.5637939 L12.6115473,20.400998 Z M9.4014384,3.6198551 C9.42079083,3.63926327 9.44052149,3.65830408 9.46063037,3.67703878 L2.81291117,14.8601204 C2.78618338,14.8525898 2.75932951,14.8454878 2.73228653,14.8389367 L2.73228653,9.13244694 C3.29041834,8.99695714 3.79358166,8.65079388 4.10397708,8.12873265 C4.41430946,7.6066102 4.47135817,7.01028367 4.31313467,6.4731 L9.4014384,3.6198551 Z M17.6513754,6.47316122 C17.4931519,7.0103449 17.5502006,7.6066102 17.860596,8.12867143 C18.1709284,8.65079388 18.6740917,8.99695714 19.2321605,9.13244694 L19.2321605,14.8389367 C19.2046762,14.8456102 19.177255,14.8528347 19.1500229,14.860549 L12.5026819,3.67820204 C12.5231691,3.6591 12.543341,3.63969184 12.5630716,3.6198551 L17.6513754,6.47316122 Z M4.33633238,16.4061 C4.28791977,16.2131204 4.21139255,16.0233857 4.10397708,15.8427122 C3.99731805,15.6633245 3.86758739,15.5051816 3.72108883,15.368651 L10.3681777,4.18667143 C10.5631519,4.24165102 10.7690315,4.27171224 10.9822865,4.27171224 C11.1949112,4.27171224 11.4002865,4.24183469 11.5947564,4.1871 L18.2422235,15.3698143 C18.0962292,15.5060388 17.9668768,15.6638143 17.860596,15.8427122 C17.7531175,16.0233857 17.6765903,16.2131204 17.6282407,16.4061 L4.33633238,16.4061 Z M20.8645731,15.0606918 C20.6772894,14.9556918 20.4806132,14.8810592 20.280533,14.8341 L20.280533,9.13722245 C20.4806762,9.09032449 20.6774155,9.01563061 20.8648252,8.91050816 C21.9164126,8.3208551 22.2767966,7.01444694 21.6694957,5.9928551 C21.0622579,4.97126327 19.7171691,4.62118163 18.6655817,5.21089592 C18.4781719,5.31595714 18.3132034,5.4441 18.1713066,5.58895714 L13.0915129,2.74048776 C13.1497593,2.54867143 13.1815301,2.34583469 13.1815301,2.13571224 C13.1815301,0.956344898 12.1968252,1.83673469e-05 10.9822865,1.83673469e-05 C9.76768481,1.83673469e-05 8.78304298,0.956344898 8.78304298,2.13571224 C8.78304298,2.34583469 8.81481375,2.54867143 8.87299713,2.74048776 L3.79326648,5.58895714 C3.65130659,5.4441 3.48633811,5.31595714 3.2989914,5.21089592 C2.24740401,4.62118163 0.902315186,4.97126327 0.295014327,5.9928551 C-0.312286533,7.01444694 0.0481604585,8.3208551 1.09974785,8.91050816 C1.28709456,9.01563061 1.48383381,9.09032449 1.68404011,9.13722245 L1.68404011,14.8341 C1.48395989,14.8810592 1.28728367,14.9556918 1.1,15.0606918 C0.0481604585,15.6505286 -0.312286533,16.9569367 0.295014327,17.9785286 C0.902315186,19.0001816 2.24740401,19.350202 3.29924355,18.7603653 C3.48652722,18.6553653 3.65143266,18.5272837 3.79332951,18.3824265 L8.87299713,21.2308959 C8.81475072,21.4225898 8.78304298,21.6253653 8.78304298,21.8354265 C8.78304298,23.0150388 9.76768481,23.9714265 10.9822865,23.9714265 C12.1968252,23.9714265 13.1815301,23.0150388 13.1815301,21.8354265 C13.1815301,21.6014878 13.1421948,21.376549 13.0706476,21.1659367 L18.1237765,18.3324061 C18.2758223,18.4978959 18.4567393,18.6434265 18.6652665,18.7603653 C19.7171691,19.350202 21.0622579,19.0001816 21.6694957,17.9785286 C22.2767966,16.9569367 21.9164126,15.6505286 20.8645731,15.0606918 L20.8645731,15.0606918 Z" id="Fill-1" fill="#fff" mask="url(#mask-2)"></path>
                </g>
            </g>
        </g>
    </g>
</svg>