<?xml version="1.0" encoding="UTF-8"?>
<svg width="69px" height="65px" viewBox="0 0 69 65" version="1.1" xmlns="http://www.w3.org/2000/svg" xmlns:xlink="http://www.w3.org/1999/xlink">
    <!-- Generator: Sketch 41.2 (35397) - http://www.bohemiancoding.com/sketch -->
    <title>Group 3</title>
    <desc>Created with Sketch.</desc>
    <defs></defs>
    <g id="Page-1" stroke="none" stroke-width="1" fill="none" fill-rule="evenodd">
        <g id="Artboard" transform="translate(-608.000000, -463.000000)" fill="#119E91">
            <g id="Group-3" transform="translate(608.000000, 463.000000)">
                <g id="Group-2">
                    <path d="M40.5777782,32.0954584 C40.5777782,35.6607103 37.8248183,38.5510273 34.4289986,38.5510273 C31.0331789,38.5510273 28.280219,35.6607103 28.280219,32.0954584 C28.280219,28.5302065 31.0331789,25.6398895 34.4289986,25.6398895 C37.8248183,25.6398895 40.5777782,28.5302065 40.5777782,32.0954584 Z" id="Fill-1"></path>
                    <path d="M24.8200275,26.3419118 C20.8596677,33.5519409 17.9373213,41.2864761 16.8022356,47.5625342 C15.8215832,52.98479 16.0113157,59.1701276 18.6456315,60.7652645 C20.6216441,61.9616172 25.3879994,60.826903 31.183298,55.5082358 C35.4381844,51.6033932 39.8832935,45.5414613 44.0379207,37.9775579 C47.9327075,30.8868166 50.7105483,23.7563128 51.8598518,17.8997566 C52.595004,14.1526776 52.7578945,10.7543257 52.3307512,8.07195816 C51.9631751,5.7632819 51.1731133,4.13610329 50.1060517,3.49012175 C49.1027247,2.88274468 47.471736,2.9643288 45.5133729,3.7203331 C43.2451624,4.5957539 40.6840186,6.30322982 38.1065736,8.65823145 C33.4810469,12.8845207 28.7624926,19.1648253 24.8200275,26.3419118 L24.8200275,26.3419118 Z M20.4610824,64.2876655 C19.2153193,64.2876655 18.1087915,64.0053381 17.1760625,63.4405546 C13.654735,61.3083008 12.4347108,55.1571925 13.9122466,46.9864267 C15.1240589,40.2868775 18.0927353,32.4071895 22.2717532,24.7990197 L22.2718757,24.7990197 C26.3726964,17.3333003 31.3105217,10.773628 36.1754202,6.32845141 C39.0198145,3.72959817 41.8979145,1.82536812 44.498402,0.821651779 C47.330172,-0.271498261 49.7774517,-0.273943211 51.5756207,0.814702974 C55.2363061,3.03111454 56.449344,9.81649437 54.7408934,18.5229615 C53.5299391,24.6941442 50.6338219,32.1512419 46.586195,39.5205787 C42.2717415,47.3751738 37.6149604,53.7077231 33.1191089,57.833512 C30.2003169,60.5122765 27.2041856,62.4669498 24.4546576,63.4864939 C23.0142593,64.0206512 21.6719141,64.2875368 20.4610824,64.2876655 L20.4610824,64.2876655 Z" id="Fill-6"></path>
                    <path d="M34.4289741,20.5141031 C26.5015135,20.5141031 18.6597266,21.7202356 12.9141899,23.82315 C7.9503805,25.640134 2.94158931,28.9025981 2.94158931,32.0954455 C2.94158931,33.376342 3.85433996,34.9023769 5.5116804,36.3925096 C7.44626563,38.1318985 10.2232485,39.6808387 13.5425869,40.8719155 C18.8901511,42.7910726 26.1126109,43.8054695 34.4289741,43.8054695 C42.2254114,43.8054695 49.4964074,42.7697114 54.9028034,40.8891588 C62.4699193,38.2568484 65.9163589,34.4854485 65.9163589,32.0954455 C65.9163589,30.8794046 65.0341272,29.4367554 63.4320641,28.033354 C61.5766567,26.4078483 58.8881666,24.9314845 55.6575662,23.7638278 C49.8596936,21.6682482 42.3206454,20.5141031 34.4289741,20.5141031 M34.4289741,46.8938275 C25.7928356,46.8938275 18.2414081,45.8220386 12.5912279,43.7944029 C8.9228209,42.4779903 5.81307074,40.7295936 3.59829912,38.7382462 C1.24429228,36.6216915 0,34.3245966 0,32.0954455 C0,27.8275922 4.46582283,23.6450547 11.9457942,20.906968 C18.0791305,18.6621178 26.0638295,17.4257452 34.4289741,17.4257452 C42.6379693,17.4257452 50.5171389,18.6395985 56.6150535,20.8436567 C60.1803823,22.132274 63.189383,23.7984432 65.3167649,25.6621385 C67.6335116,27.6915757 68.8579482,29.9162229 68.8579482,32.0954455 C68.8579482,36.5321291 63.8652132,41.0250466 55.8280558,43.8207826 C50.1310553,45.8026077 42.5314593,46.8938275 34.4289741,46.8938275" id="Fill-3"></path>
                    <path d="M24.8292445,37.9944409 C28.801248,45.1977785 33.7243654,51.718589 38.3361646,55.8851699 C42.320915,59.4852945 47.5198064,62.4014766 50.1515483,60.8020932 C52.1257225,59.6022661 53.5695525,54.7001412 52.0751026,46.7727124 C50.9777672,40.9520584 48.1952689,33.8815201 44.0287527,26.3250803 C40.1223221,19.2410305 35.6257352,13.1532335 31.3669267,9.18327804 C28.6420345,6.64310361 25.9192259,4.79768104 23.4924147,3.84672415 C21.4037637,3.0281806 19.6663875,2.93398569 18.6003065,3.58202613 C17.5978374,4.19133343 16.8507963,5.71569545 16.4964574,7.87445767 C16.0862282,10.3748695 16.2161484,13.5572937 16.8722454,17.0776357 C18.0496165,23.3955154 20.8755033,30.8239171 24.8292445,37.9945696 L24.8292445,37.9944409 Z M48.3891686,64.3229499 C45.0570833,64.3229499 40.8234009,62.2066526 36.417513,58.2261453 C31.4943956,53.7783951 26.4749411,47.1429293 22.2834215,39.5418369 L22.2834215,39.5417082 C18.1707119,32.0829377 15.2236071,24.3155887 13.9853206,17.6707292 C13.2613219,13.7855748 13.1272345,10.2167198 13.5976437,7.35008022 C14.1098479,4.22826504 15.3302398,2.00104422 17.1265703,0.909180991 C20.7840689,-1.31366466 26.9889838,0.971848922 33.3200194,6.87382969 C37.8076591,11.0571392 42.5148148,17.4155536 46.5743306,24.7778129 C50.9012859,32.6246871 53.8012027,40.023106 54.9606791,46.1730562 C55.7133583,50.1657883 55.8302865,53.867314 55.2983491,56.8773049 C54.7329511,60.0767151 53.4629199,62.3579822 51.6252846,63.4749383 C50.6886335,64.0442256 49.5981618,64.3229499 48.3891686,64.3229499 L48.3891686,64.3229499 Z" id="Fill-8"></path>
                </g>
            </g>
        </g>
    </g>
</svg>